<mxfile host="Electron" agent="Mozilla/5.0 (Windows NT 10.0; Win64; x64) AppleWebKit/537.36 (KHTML, like Gecko) draw.io/27.0.9 Chrome/134.0.6998.205 Electron/35.4.0 Safari/537.36" version="27.0.9">
  <diagram name="Page-1" id="_WY50vokPhb2mifZ-dUo">
    <mxGraphModel dx="1011" dy="501" grid="1" gridSize="10" guides="1" tooltips="1" connect="1" arrows="1" fold="1" page="1" pageScale="1" pageWidth="850" pageHeight="1100" math="0" shadow="0">
      <root>
        <mxCell id="0" />
        <mxCell id="1" parent="0" />
        <mxCell id="7XsMxE2_eeWsGoBE3oJ0-1" value="CWE-89: Improper Neutralization of SQL Commands" style="whiteSpace=wrap;strokeWidth=2;" vertex="1" parent="1">
          <mxGeometry x="333" y="20" width="260" height="102" as="geometry" />
        </mxCell>
        <mxCell id="7XsMxE2_eeWsGoBE3oJ0-2" value="CVE-2022-22965&#xa;Spring4Shell" style="whiteSpace=wrap;strokeWidth=2;" vertex="1" parent="1">
          <mxGeometry x="101" y="195" width="175" height="78" as="geometry" />
        </mxCell>
        <mxCell id="7XsMxE2_eeWsGoBE3oJ0-3" value="CVE-2019-12345&#xa;SQL Injection in app" style="whiteSpace=wrap;strokeWidth=2;" vertex="1" parent="1">
          <mxGeometry x="361" y="195" width="204" height="78" as="geometry" />
        </mxCell>
        <mxCell id="7XsMxE2_eeWsGoBE3oJ0-4" value="CVE-2020-6789&#xa;Legacy WebApp SQLi" style="whiteSpace=wrap;strokeWidth=2;" vertex="1" parent="1">
          <mxGeometry x="615" y="196" width="208" height="78" as="geometry" />
        </mxCell>
        <mxCell id="7XsMxE2_eeWsGoBE3oJ0-5" value="CWE-502: Deserialization of Untrusted Data" style="whiteSpace=wrap;strokeWidth=2;" vertex="1" parent="1">
          <mxGeometry x="20" y="32" width="260" height="78" as="geometry" />
        </mxCell>
        <mxCell id="7XsMxE2_eeWsGoBE3oJ0-6" value="is root cause of" style="curved=1;startArrow=none;endArrow=block;exitX=0.08;exitY=1;entryX=0.76;entryY=0;rounded=0;" edge="1" parent="1" source="7XsMxE2_eeWsGoBE3oJ0-1" target="7XsMxE2_eeWsGoBE3oJ0-2">
          <mxGeometry relative="1" as="geometry">
            <Array as="points">
              <mxPoint x="276" y="158" />
            </Array>
          </mxGeometry>
        </mxCell>
        <mxCell id="7XsMxE2_eeWsGoBE3oJ0-7" value="is root cause of" style="curved=1;startArrow=none;endArrow=block;exitX=0.5;exitY=1;entryX=0.5;entryY=0;rounded=0;" edge="1" parent="1" source="7XsMxE2_eeWsGoBE3oJ0-1" target="7XsMxE2_eeWsGoBE3oJ0-3">
          <mxGeometry relative="1" as="geometry">
            <Array as="points" />
          </mxGeometry>
        </mxCell>
        <mxCell id="7XsMxE2_eeWsGoBE3oJ0-8" value="is root cause of" style="curved=1;startArrow=none;endArrow=block;exitX=1;exitY=0.94;entryX=0.5;entryY=0;rounded=0;" edge="1" parent="1" source="7XsMxE2_eeWsGoBE3oJ0-1" target="7XsMxE2_eeWsGoBE3oJ0-4">
          <mxGeometry relative="1" as="geometry">
            <Array as="points">
              <mxPoint x="719" y="158" />
            </Array>
          </mxGeometry>
        </mxCell>
        <mxCell id="7XsMxE2_eeWsGoBE3oJ0-9" value="" style="curved=1;startArrow=none;endArrow=block;exitX=0.5;exitY=1;entryX=0.39;entryY=0;rounded=0;" edge="1" parent="1" source="7XsMxE2_eeWsGoBE3oJ0-5" target="7XsMxE2_eeWsGoBE3oJ0-2">
          <mxGeometry relative="1" as="geometry">
            <Array as="points">
              <mxPoint x="150" y="158" />
            </Array>
          </mxGeometry>
        </mxCell>
        <mxCell id="7XsMxE2_eeWsGoBE3oJ0-10" value="Source Code Repository" style="whiteSpace=wrap;strokeWidth=2;" vertex="1" parent="1">
          <mxGeometry x="180" y="300" width="228" height="54" as="geometry" />
        </mxCell>
        <mxCell id="7XsMxE2_eeWsGoBE3oJ0-11" value="Static Analysis Engine" style="rounded=1;whiteSpace=wrap;arcSize=50;strokeWidth=2;" vertex="1" parent="1">
          <mxGeometry x="205" y="404" width="179" height="39" as="geometry" />
        </mxCell>
        <mxCell id="7XsMxE2_eeWsGoBE3oJ0-12" value="CWE Mapping Engine" style="shape=hexagon;perimeter=hexagonPerimeter2;fixedSize=1;strokeWidth=2;whiteSpace=wrap;" vertex="1" parent="1">
          <mxGeometry x="203" y="493" width="182" height="39" as="geometry" />
        </mxCell>
        <mxCell id="7XsMxE2_eeWsGoBE3oJ0-13" value="Fix Strategy Decision" style="rhombus;strokeWidth=2;whiteSpace=wrap;" vertex="1" parent="1">
          <mxGeometry x="192" y="582" width="204" height="204" as="geometry" />
        </mxCell>
        <mxCell id="7XsMxE2_eeWsGoBE3oJ0-14" value="Java AST Fixer" style="strokeWidth=2;shape=process;whiteSpace=wrap;size=0.04;" vertex="1" parent="1">
          <mxGeometry x="20" y="836" width="134" height="39" as="geometry" />
        </mxCell>
        <mxCell id="7XsMxE2_eeWsGoBE3oJ0-15" value="Semgrep Regex Fixer" style="strokeWidth=2;shape=process;whiteSpace=wrap;size=0.04;" vertex="1" parent="1">
          <mxGeometry x="204" y="836" width="180" height="39" as="geometry" />
        </mxCell>
        <mxCell id="7XsMxE2_eeWsGoBE3oJ0-16" value="Dependency Upgrader" style="strokeWidth=2;shape=process;whiteSpace=wrap;size=0.04;" vertex="1" parent="1">
          <mxGeometry x="434" y="836" width="189" height="39" as="geometry" />
        </mxCell>
        <mxCell id="7XsMxE2_eeWsGoBE3oJ0-17" value="Generate Patch" style="rounded=1;whiteSpace=wrap;arcSize=50;strokeWidth=2;" vertex="1" parent="1">
          <mxGeometry x="226" y="925" width="136" height="39" as="geometry" />
        </mxCell>
        <mxCell id="7XsMxE2_eeWsGoBE3oJ0-18" value="Run Unit Tests" style="rounded=1;whiteSpace=wrap;arcSize=50;strokeWidth=2;" vertex="1" parent="1">
          <mxGeometry x="231" y="1014" width="126" height="39" as="geometry" />
        </mxCell>
        <mxCell id="7XsMxE2_eeWsGoBE3oJ0-19" value="Create Pull Request &amp; Notify" style="shape=parallelogram;perimeter=parallelogramPerimeter;fixedSize=1;strokeWidth=2;whiteSpace=wrap;" vertex="1" parent="1">
          <mxGeometry x="155" y="1103" width="278" height="63" as="geometry" />
        </mxCell>
        <mxCell id="7XsMxE2_eeWsGoBE3oJ0-20" value="" style="curved=1;startArrow=none;endArrow=block;exitX=0.5;exitY=1;entryX=0.5;entryY=0;rounded=0;" edge="1" parent="1" source="7XsMxE2_eeWsGoBE3oJ0-10" target="7XsMxE2_eeWsGoBE3oJ0-11">
          <mxGeometry relative="1" as="geometry">
            <Array as="points" />
          </mxGeometry>
        </mxCell>
        <mxCell id="7XsMxE2_eeWsGoBE3oJ0-21" value="" style="curved=1;startArrow=none;endArrow=block;exitX=0.5;exitY=1;entryX=0.5;entryY=0;rounded=0;" edge="1" parent="1" source="7XsMxE2_eeWsGoBE3oJ0-11" target="7XsMxE2_eeWsGoBE3oJ0-12">
          <mxGeometry relative="1" as="geometry">
            <Array as="points" />
          </mxGeometry>
        </mxCell>
        <mxCell id="7XsMxE2_eeWsGoBE3oJ0-22" value="" style="curved=1;startArrow=none;endArrow=block;exitX=0.5;exitY=1;entryX=0.5;entryY=0;rounded=0;" edge="1" parent="1" source="7XsMxE2_eeWsGoBE3oJ0-12" target="7XsMxE2_eeWsGoBE3oJ0-13">
          <mxGeometry relative="1" as="geometry">
            <Array as="points" />
          </mxGeometry>
        </mxCell>
        <mxCell id="7XsMxE2_eeWsGoBE3oJ0-23" value="" style="curved=1;startArrow=none;endArrow=block;exitX=0;exitY=0.8;entryX=0.5;entryY=-0.01;rounded=0;" edge="1" parent="1" source="7XsMxE2_eeWsGoBE3oJ0-13" target="7XsMxE2_eeWsGoBE3oJ0-14">
          <mxGeometry relative="1" as="geometry">
            <Array as="points">
              <mxPoint x="87" y="811" />
            </Array>
          </mxGeometry>
        </mxCell>
        <mxCell id="7XsMxE2_eeWsGoBE3oJ0-24" value="" style="curved=1;startArrow=none;endArrow=block;exitX=0.5;exitY=1;entryX=0.5;entryY=-0.01;rounded=0;" edge="1" parent="1" source="7XsMxE2_eeWsGoBE3oJ0-13" target="7XsMxE2_eeWsGoBE3oJ0-15">
          <mxGeometry relative="1" as="geometry">
            <Array as="points" />
          </mxGeometry>
        </mxCell>
        <mxCell id="7XsMxE2_eeWsGoBE3oJ0-25" value="" style="curved=1;startArrow=none;endArrow=block;exitX=1;exitY=0.77;entryX=0.5;entryY=-0.01;rounded=0;" edge="1" parent="1" source="7XsMxE2_eeWsGoBE3oJ0-13" target="7XsMxE2_eeWsGoBE3oJ0-16">
          <mxGeometry relative="1" as="geometry">
            <Array as="points">
              <mxPoint x="529" y="811" />
            </Array>
          </mxGeometry>
        </mxCell>
        <mxCell id="7XsMxE2_eeWsGoBE3oJ0-26" value="" style="curved=1;startArrow=none;endArrow=block;exitX=0.5;exitY=0.99;entryX=0;entryY=0.12;rounded=0;" edge="1" parent="1" source="7XsMxE2_eeWsGoBE3oJ0-14" target="7XsMxE2_eeWsGoBE3oJ0-17">
          <mxGeometry relative="1" as="geometry">
            <Array as="points">
              <mxPoint x="87" y="900" />
            </Array>
          </mxGeometry>
        </mxCell>
        <mxCell id="7XsMxE2_eeWsGoBE3oJ0-27" value="" style="curved=1;startArrow=none;endArrow=block;exitX=0.5;exitY=0.99;entryX=0.5;entryY=-0.01;rounded=0;" edge="1" parent="1" source="7XsMxE2_eeWsGoBE3oJ0-15" target="7XsMxE2_eeWsGoBE3oJ0-17">
          <mxGeometry relative="1" as="geometry">
            <Array as="points" />
          </mxGeometry>
        </mxCell>
        <mxCell id="7XsMxE2_eeWsGoBE3oJ0-28" value="" style="curved=1;startArrow=none;endArrow=block;exitX=0.5;exitY=0.99;entryX=1;entryY=0.16;rounded=0;" edge="1" parent="1" source="7XsMxE2_eeWsGoBE3oJ0-16" target="7XsMxE2_eeWsGoBE3oJ0-17">
          <mxGeometry relative="1" as="geometry">
            <Array as="points">
              <mxPoint x="529" y="900" />
            </Array>
          </mxGeometry>
        </mxCell>
        <mxCell id="7XsMxE2_eeWsGoBE3oJ0-29" value="" style="curved=1;startArrow=none;endArrow=block;exitX=0.5;exitY=0.99;entryX=0.5;entryY=-0.01;rounded=0;" edge="1" parent="1" source="7XsMxE2_eeWsGoBE3oJ0-17" target="7XsMxE2_eeWsGoBE3oJ0-18">
          <mxGeometry relative="1" as="geometry">
            <Array as="points" />
          </mxGeometry>
        </mxCell>
        <mxCell id="7XsMxE2_eeWsGoBE3oJ0-30" value="" style="curved=1;startArrow=none;endArrow=block;exitX=0.5;exitY=0.99;entryX=0.5;entryY=-0.01;rounded=0;" edge="1" parent="1" source="7XsMxE2_eeWsGoBE3oJ0-18" target="7XsMxE2_eeWsGoBE3oJ0-19">
          <mxGeometry relative="1" as="geometry">
            <Array as="points" />
          </mxGeometry>
        </mxCell>
      </root>
    </mxGraphModel>
  </diagram>
</mxfile>
